<?xml version="1.0" standalone="no"?><svg xmlns="http://www.w3.org/2000/svg" viewBox="0 0 1440 320"><path fill="#b5e5cf" fill-opacity="1" d="M0,224L40,229.3C80,235,160,245,240,256C320,267,400,277,480,266.7C560,256,640,224,720,202.7C800,181,880,171,960,176C1040,181,1120,203,1200,202.7C1280,203,1360,181,1400,170.7L1440,160L1440,320L1400,320C1360,320,1280,320,1200,320C1120,320,1040,320,960,320C880,320,800,320,720,320C640,320,560,320,480,320C400,320,320,320,240,320C160,320,80,320,40,320L0,320Z"></path></svg>