<?xml version="1.0" standalone="no"?>
<svg xmlns:xlink="http://www.w3.org/1999/xlink" id="wave" style="transform:rotate(0deg); transition: 0.3s" viewBox="0 0 1440 290" version="1.1" xmlns="http://www.w3.org/2000/svg"><defs><linearGradient id="sw-gradient-0" x1="0" x2="0" y1="1" y2="0"><stop stop-color="rgba(61, 91, 89, 1)" offset="0%"/><stop stop-color="rgba(181, 229, 207, 1)" offset="100%"/></linearGradient></defs><path style="transform:translate(0, 0px); opacity:1" fill="url(#sw-gradient-0)" d="M0,87L120,96.7C240,106,480,126,720,116C960,106,1200,68,1440,72.5C1680,77,1920,126,2160,125.7C2400,126,2640,77,2880,72.5C3120,68,3360,106,3600,106.3C3840,106,4080,68,4320,77.3C4560,87,4800,145,5040,159.5C5280,174,5520,145,5760,149.8C6000,155,6240,193,6480,178.8C6720,164,6960,97,7200,87C7440,77,7680,126,7920,149.8C8160,174,8400,174,8640,188.5C8880,203,9120,232,9360,217.5C9600,203,9840,145,10080,120.8C10320,97,10560,106,10800,111.2C11040,116,11280,116,11520,111.2C11760,106,12000,97,12240,82.2C12480,68,12720,48,12960,48.3C13200,48,13440,68,13680,72.5C13920,77,14160,68,14400,96.7C14640,126,14880,193,15120,183.7C15360,174,15600,87,15840,62.8C16080,39,16320,77,16560,96.7C16800,116,17040,116,17160,116L17280,116L17280,290L17160,290C17040,290,16800,290,16560,290C16320,290,16080,290,15840,290C15600,290,15360,290,15120,290C14880,290,14640,290,14400,290C14160,290,13920,290,13680,290C13440,290,13200,290,12960,290C12720,290,12480,290,12240,290C12000,290,11760,290,11520,290C11280,290,11040,290,10800,290C10560,290,10320,290,10080,290C9840,290,9600,290,9360,290C9120,290,8880,290,8640,290C8400,290,8160,290,7920,290C7680,290,7440,290,7200,290C6960,290,6720,290,6480,290C6240,290,6000,290,5760,290C5520,290,5280,290,5040,290C4800,290,4560,290,4320,290C4080,290,3840,290,3600,290C3360,290,3120,290,2880,290C2640,290,2400,290,2160,290C1920,290,1680,290,1440,290C1200,290,960,290,720,290C480,290,240,290,120,290L0,290Z"/></svg>